<?xml version="1.0" encoding="UTF-8"?>
<svg width="300px" height="180px" viewBox="0 0 300 180" version="1.1" xmlns="http://www.w3.org/2000/svg" xmlns:xlink="http://www.w3.org/1999/xlink">
    <title>Group 8</title>
    <g id="Home-page" stroke="none" stroke-width="1" fill="none" fill-rule="evenodd">
        <g id="Team-/-m" transform="translate(-201.000000, -450.000000)">
            <g id="Fabian-Krumbholz" transform="translate(200.000000, 450.000000)">
                <g id="Group-8" transform="translate(1.000000, 0.000000)">
                    <g id="Group-3-Copy" fill="#FFFFFF">
                        <rect id="Rectangle-Copy-2" x="0" y="1.13686838e-13" width="300" height="179" rx="12"></rect>
                    </g>
                    <g id="Group-13" transform="translate(92.000000, 14.268676)">
                        <g id="Group-10" transform="translate(0.000000, 0.731324)">
                            <g id="Group-12" transform="translate(55.019308, 35.465288) rotate(10.000000) translate(-55.019308, -35.465288) translate(27.519308, 4.465288)">
                                <path d="M33.1364961,60.401796 C24.2310758,61.4926107 7.40604226,49.1665634 6.03905563,34.5961229 C4.67206906,20.026348 13.8441754,7.53014281 26.5250303,6.68531341 C39.2066743,5.84114967 49.5824746,17.0052632 50.9494611,31.575038 C52.3156587,46.1448128 42.0419163,59.3109813 33.1364961,60.401796 Z" id="Fill-26" stroke="#332E2E" transform="translate(28.488293, 33.554753) rotate(-3.000000) translate(-28.488293, -33.554753) "></path>
                                <path d="M2.74021529,9.65196035 C2.37382307,6.79379017 2.62753011,5.593261 3.93618834,5.94391492 C6.71625506,19.3945114 13.7975044,26.5339465 25.4497037,25.1239481 C36.1506866,23.8275012 45.2723699,17.593461 44.7518228,5.44419837 C44.8113259,5.67213694 46.3524304,5.65571882 46.3918743,5.88364884 C48.8951376,19.7247454 37.1640468,29.9250274 27.8817874,30.9033989 C15.3709752,31.6087043 4.48309259,23.247882 2.74021529,9.65196035 Z" id="Fill-28" fill="#332E2E" transform="translate(24.660989, 18.194489) rotate(-195.000000) translate(-24.660989, -18.194489) "></path>
                                <path d="M49.7233105,22.2496962 C52.1862849,22.4814888 53.8587486,24.974356 53.4588863,27.8177425 C53.0590241,30.661129 52.226891,32.9971132 49.7639163,32.7646987" id="Path" stroke="#332E2E" transform="translate(51.620634, 27.515182) rotate(-15.000000) translate(-51.620634, -27.515182) "></path>
                                <path d="M4.48630948,34.6701769 C6.94937974,34.9004623 8.62049799,37.3920832 8.21888017,40.2354396 C7.81726235,43.078796 5.49561415,45.1967457 3.032544,44.9658384" id="Path-Copy" stroke="#332E2E" transform="translate(5.655504, 39.826619) scale(-1, 1) rotate(6.000000) translate(-5.655504, -39.826619) "></path>
                            </g>
                            <path d="M47.776699,61.8177217 C48.9244876,67.6614796 49.3070838,71.5286671 48.9244876,73.4192842" id="Path-36" stroke="#332E2E"></path>
                            <path d="M66.5,60.5286592 C67.6477886,65.7231107 68.0303848,69.1606107 67.6477886,70.8411592" id="Path-36-Copy" stroke="#332E2E" transform="translate(67.145631, 65.684909) scale(-1, 1) translate(-67.145631, -65.684909) "></path>
                            <path d="M0,136.451112 C0,121.90615 23.0337844,77.301849 40.4574749,73.4192842 C44.9113972,72.4268055 46.8738732,73.4192842 56.5166286,73.4192842 C66.1593839,73.4192842 68.4710651,68.1300082 70.8628765,68.0683928 C81.9636237,68.8645949 83.1674795,65.9328728 115.078694,80.3868838 C127.026231,86.9982557 133,95.6327538 133,106.290378 C133,116.948002 121.254568,131.157122 97.7637037,148.917738 L95.8560567,134.518203 C94.3436162,130.410247 119.068185,115.958347 115.078694,107.57944 C111.089203,99.2005342 103.640116,99.2005342 91.6796117,97.3357328 L99.5003224,163.653659 L34.9472409,163.653659 C28.4192529,158.216667 33.5504865,95.0087549 34.9472409,97.3357328 C21.9976945,108.780746 14.5335769,132.871395 13.5603411,138.513799 C12.9115173,142.275402 18.5646775,150.655355 30.5198216,163.653659 L14.9300494,163.653659 C4.97668313,155.215269 0,146.147753 0,136.451112 Z" id="Path" stroke="#332E2E" fill="#5C62FF"></path>
                            <path d="M56.815534,81.3921358 C59.3980583,88.68474 60.2150946,99.2998158 59.266643,113.237363 C58.3181914,127.174911 57.7932573,144.01662 57.6918409,163.76249 L61.5354862,163.76249 C61.718052,146.279668 61.9455077,134.999245 62.2178532,129.921219 C62.6263713,122.304181 62.9433064,105.19296 62.9433064,98.2885411 C62.9433064,93.6855951 61.717752,88.05346 59.266643,81.3921358" id="Path-9" stroke="#332E2E"></path>
                        </g>
                        <polygon id="Fill-8" stroke="#332E2E" fill="#FFFFFF" points="61 74.7313235 57.4813252 86.7313235 42 78.7648646 45.752409 74.7313235"></polygon>
                        <polygon id="Fill-12" stroke="#332E2E" fill="#FFFFFF" points="57 74.9520164 61.0234557 86.7313235 76 74.2822634 72.4235452 69.7313235"></polygon>
                    </g>
                </g>
            </g>
        </g>
    </g>
</svg>