<?xml version="1.0" encoding="UTF-8"?>
<svg width="300px" height="180px" viewBox="0 0 300 180" version="1.1" xmlns="http://www.w3.org/2000/svg" xmlns:xlink="http://www.w3.org/1999/xlink">
    <title>Group 22</title>
    <g id="Home-page" stroke="none" stroke-width="1" fill="none" fill-rule="evenodd">
        <g id="Team-/-m" transform="translate(-602.000000, -746.000000)">
            <g id="Group-22" transform="translate(602.000000, 746.000000)">
                <g id="Group-3-Copy" fill="#FFFFFF">
                    <rect id="Rectangle-Copy-2" x="0" y="1.13686838e-13" width="300" height="179" rx="12"></rect>
                </g>
                <g id="Ines" transform="translate(83.000000, 34.907974)" stroke="#332E2E">
                    <g id="Caroline" transform="translate(0.000000, 55.092026)">
                        <path d="M0.846645601,57.1780933 C3.80907347,43.9818544 32.092094,18.6159991 45.5856288,15.60407 C49.034907,14.8341471 48.0248373,19.0455345 55.492535,19.0455345 C62.9602328,19.0455345 64.026464,13.8968041 65.878769,13.8490054 C74.4755883,14.4666652 93.0548026,23.0709457 117.767999,34.2837542 L139.230693,4.7898703 L160,3.34177215 L131.482422,45 C125.93174,50.2198971 122.832364,56.7307365 113.589844,54.8864549 C104.347323,53.0421733 95.5088902,50.2198971 84.9063604,40.0324281 L88.4868544,89 L40.8008611,89 C35.7453517,84.7822123 27.523065,42.1766837 28.604762,43.9818544 C18.5761659,52.86041 15.7835133,56.3297891 14.0030837,60.6461488 C12.8161307,63.5237218 16.7955715,72.9750056 25.9414062,89 L10.3104121,89 C2.02628252,76.5828882 -1.12830631,65.9755859 0.846645601,57.1780933 Z" id="Path" fill="#E74624"></path>
                        <path d="M45.923117,13.8126582 C48.5852638,5.08358778 48.6931453,1.43011603 48.6931453,0 M61.7963131,1.70472925 C61.7963131,1.70472925 63.0885204,5.74070558 65.672935,13.8126582" id="Shape"></path>
                    </g>
                    <path d="M144.843084,60.0920263 C144.843084,60.0920263 134.506683,49.6255702 137.566222,50.4448035 C139.605916,50.990959 142.031536,52.2166869 144.843084,54.1219871 C142.60405,43.0885983 142.044291,37.1962433 143.163808,36.4449221 C144.283325,35.6936008 145.822661,39.0334418 147.781816,46.4644451 C146.475713,37.0396883 146.149187,32.3273099 146.802239,32.3273099 C147.781816,32.3273099 150.860488,46.4644451 150.860488,46.4644451 C150.860488,46.4644451 149.183946,31.0920263 150.860488,31.0920263 C152.537031,31.0920263 153.098976,46.4644451 153.098976,46.4644451 C153.098976,46.4644451 154.485253,33.8392456 156.317588,36.4449221 C158.149923,39.0505985 157.996864,48.6728363 157.996864,50.4448035 C157.996864,51.626115 157.716984,54.4626922 157.157226,58.9545353" id="Path-38"></path>
                    <path d="M84.3534852,57.2752689 C81.9642889,50.9009766 86.2911407,36.4766041 84.3534852,30.9230534 C80.7838659,20.6921008 74.8656794,0 58.7077547,0 C41.6609269,0 38.4934743,7.67747549 30.4668349,20.0666356 C30.3017119,20.3215038 28.452773,24.5978193 28.3012828,24.8776837 C26.8486296,27.5613289 25.9427482,41.4158547 24.9335533,44.6117542 C17.3802522,68.5314076 34.0921608,95.815657 38.4868544,93.3743754 C41.4166502,91.7468543 41.2521492,72.800176 37.9933514,36.5343404 C40.739124,38.2635023 43.3531811,35.290571 45.8355225,27.6155467 C49.5590347,16.1030101 60.0260673,2.51572247 68.395764,20.6921008 C76.7654607,38.868479 70.6369489,57.0203908 68.395764,64.0920263 C66.1545791,71.1636618 68.4904329,89.8411276 71.0380218,93.3743754 C73.5856107,96.9076232 78.5720122,87.2974149 84.3534852,80.5920263 C90.1349582,73.8866376 89.5875374,66.7547249 84.3534852,57.2752689 Z" id="Path-2" fill="#FFFFFF" transform="translate(55.743427, 47.065741) scale(-1, 1) translate(-55.743427, -47.065741) "></path>
                    <g id="Group-4" transform="translate(37.000000, 27.092026)">
                        <path d="M0.211737939,1.44920188 C1.47994432,0.423909389 3.32073641,-0.599606167 9.27562784,0.423909389 C15.2305193,1.44742494 17.5189693,3.38384174 14.3550783,8.56672194 C11.1911873,13.7496021 6.7065635,11.7372213 5.21547459,11.0384409 C3.72438567,10.3396606 -1.05646844,2.47449437 0.211737939,1.44920188 Z" id="Path-34" fill="#FFFFFF"></path>
                        <path d="M24.0537356,0 C24.8298333,0.159216744 25.5768269,0.300519874 26.2947165,0.423909389 C32.249608,1.44742494 34.538058,3.38384174 31.374167,8.56672194 C28.210276,13.7496021 22.9891139,12.2855356 21.4003825,10.7919594 C20.9197691,10.3401318 20.1081081,9.46939575 20.1081081,8.91907705" id="Path" transform="translate(26.453148, 6.095654) scale(-1, 1) translate(-26.453148, -6.095654) "></path>
                        <line x1="15.7790997" y1="4.09699961" x2="20.1081081" y2="4.09699961" id="Path-35"></line>
                        <path d="M4.5963992,10.5588524 C5.0779381,14.3035981 5.58767766,16.8334545 6.31841631,19.1633106 C7.41452427,22.6580947 13.3027535,29.7283658 14.9016448,30.5604573 C16.500536,31.3925488 23.2860867,31.1734982 26.1960586,28.764443 C29.1060305,26.3553879 33.6384115,15.1882565 35,9.44231411" id="Shape"></path>
                    </g>
                </g>
            </g>
        </g>
    </g>
</svg>