<?xml version="1.0" encoding="UTF-8"?>
<svg width="300px" height="180px" viewBox="0 0 300 180" version="1.1" xmlns="http://www.w3.org/2000/svg" xmlns:xlink="http://www.w3.org/1999/xlink">
    <title>Group 21</title>
    <g id="Home-page" stroke="none" stroke-width="1" fill="none" fill-rule="evenodd">
        <g id="Team-/-m" transform="translate(-200.000000, -746.000000)">
            <g id="Group-21" transform="translate(200.000000, 746.000000)">
                <rect id="Rectangle-Copy-2" fill="#FFFFFF" x="0" y="0" width="300" height="179" rx="12"></rect>
                <g id="Group-6" transform="translate(79.000000, 38.069462)">
                    <path d="M62.7586851,55.2000492 C53.2186581,55.9043234 44.6520427,46.6429229 43.6246187,34.512893 C42.5971946,22.3834172 49.4983266,11.979441 59.0383536,11.2751668 C68.5789741,10.5714466 76.384073,19.8649856 77.411497,31.9944614 C78.4383275,44.1239372 72.2993056,54.4957749 62.7586851,55.2000492 Z" id="Fill-26" transform="translate(60.523277, 33.237697) scale(-1, 1) rotate(-3.000000) translate(-60.523277, -33.237697) "></path>
                    <path d="M62.3627952,59.0369934 C53.1683079,60.4086198 44.1578656,50.872008 42.2235993,37.760891 C42.0395542,36.4972195 41.9319954,35.2497412 41.8704479,34.0172566 C44.0192343,46.7583283 52.8922402,55.9248949 61.9176212,54.5844555 C70.2062241,53.3519709 75.7939054,43.6774168 75.3947426,32.1682299 C75.4407539,32.3841396 75.4718264,32.5994495 75.5023014,32.8153592 C77.4365677,45.9264762 71.5572825,57.6659668 62.3627952,59.0369934" id="Fill-28" fill="#332E2E" transform="translate(58.870448, 45.668230) scale(-1, 1) rotate(-3.000000) translate(-58.870448, -45.668230) "></path>
                    <path d="M42.4467562,5.50325507 C42.4467562,5.50325507 42.3378002,15.0795674 44.7503124,16.4651015 C47.1622292,17.8512241 49.9200665,15.3314827 52.1099036,14.9530212 C54.2997408,14.5751483 58.7324045,14.2031612 61.837353,16.8777011 C64.9423015,19.5522409 67.6072583,27.3533745 67.6072583,27.3533745 L68.2883822,29.9672899 C68.2883822,29.9672899 70.1043156,30.4193248 70.2948398,27.9625622 C70.4865547,25.505211 69.9763072,15.2049365 70.2948398,14.1972753 C70.6139678,13.1896142 70.4865547,12.1813645 69.339242,11.0471571 C68.1925247,9.91353832 66.7266794,8.14954274 67.172625,7.3932083 C67.6185707,6.63746244 69.5303616,4.6845304 67.6822772,2.98351364 C65.8341928,1.28249688 56.9123034,0.211268334 55.2559339,1.72334863 C53.5989691,3.23542892 47.4176507,-2.56038839 42.4467562,5.50325507" id="Fill-30" fill="#332E2E" transform="translate(56.446008, 15.500000) scale(-1, 1) rotate(-3.000000) translate(-56.446008, -15.500000) "></path>
                    <path d="M80.2340611,7.74391761 C80.2340611,7.74391761 71.3811165,8.67329987 71.1866062,16.1106741 C71.1866062,16.1106741 70.1164967,17.7841412 67.9762776,20.4802183 C65.8354527,23.1762955 68.3652982,27.7317162 68.9488291,30.4277933 C69.5323599,33.1238704 70.7321429,35.3549669 70.6673062,36.1610105 C70.6024694,36.9664751 72.2221765,38.5160246 73.6819126,37.8964365 C75.1428605,37.2762692 75.4670443,35.62249 75.4670443,35.62249 C75.4670443,35.62249 75.5967178,25.1288668 77.2182428,23.2695232 C78.8397677,21.4101797 81.595633,19.582105 83.1850426,18.8067512 C84.7744521,18.0313974 85.1307513,16.5756548 85.1307513,16.3897783 C85.1307513,16.2039019 83.1202058,6.03918157 83.1202058,6.03918157 L80.2340611,7.74391761 Z" id="Fill-32" fill="#332E2E" transform="translate(76.130751, 22.039182) scale(-1, 1) rotate(-3.000000) translate(-76.130751, -22.039182) "></path>
                    <path d="M40.9350537,25.5180838 C42.8426114,25.7414351 44.1371521,28.1537505 43.8265096,30.9062101 C43.5158671,33.6586698 41.7181563,35.7085659 39.8105986,35.4846125" id="Path" stroke="#332E2E" transform="translate(41.841569, 30.509716) scale(-1, 1) rotate(-15.000000) translate(-41.841569, -30.509716) "></path>
                    <path d="M75.815662,33.9757476 C77.7232197,34.199099 79.0177604,36.6114143 78.7071179,39.363874 C78.3964754,42.1163336 76.5987647,44.1662297 74.691207,43.9422763" id="Path-Copy" stroke="#332E2E" transform="translate(76.722177, 38.967380) rotate(6.000000) translate(-76.722177, -38.967380) "></path>
                    <path d="M51.2423386,54.5160921 C52.1953269,54.4097055 53.2854654,54.2183337 53.8823339,53.7837926 C54.5657307,53.2865982 54.2484603,52.5369295 54.1636979,51.9690175 C54.1395642,51.8071114 54.1919521,51.3595434 53.9370763,51.2255521 C53.9370763,51.2255521 56.4346236,51.0279771 56.4569915,51.0264263 C56.2339016,51.0441057 56.9025827,52.8985819 57.0085357,53.0499424 C57.2922542,53.4537771 58.0633565,53.6820585 58.8209204,53.7828621 C59.6126247,53.8886284 60.4743756,53.9001045 61.2855046,53.8693981 C61.485638,53.861644 63.4375275,53.7735572 63.4551864,53.6659299 C63.4404707,53.7568083 63.3139157,53.8303174 63.1926584,53.8957622 C61.9200453,54.5824674 60.5108705,55.1987651 59.1034617,55.8066884 C59.1034617,55.8066884 52.4254803,56.1056874 52.2365308,56.0061245 C52.0475813,55.9065615 48.4628385,54.6227888 48.4551864,54.6203075 C48.9531654,54.7986523 50.6825536,54.5787454 51.2423386,54.5160921 Z" id="Fill-46" fill="#332E2E" transform="translate(55.955186, 53.526426) scale(-1, 1) rotate(-3.000000) translate(-55.955186, -53.526426) "></path>
                    <path d="M49.1359128,54.060817 C48.9380148,52.1122286 48.3899438,45.8744576 49.1910162,44.0179997 L49.1910162,43.8915462 L49.4641629,43.5772189 C49.9713507,43.1370402 50.4198801,42.8203043 50.8944799,42.5547519 C52.3864179,41.6659644 54.247489,41.1535266 56.25728,41.0824717 C57.361717,41.0312882 58.4495637,41.0716329 59.4941573,41.1950756 L59.7530838,41.22699 C60.0499308,41.2625175 60.3414453,41.2980449 60.6329598,41.3630781 C61.3700412,41.5220482 62.2990955,41.8423971 62.9087874,42.9046066 C63.5404021,44.0017414 63.8111788,45.1879957 64.0736603,46.3345075 C64.1406138,46.6301679 64.2087524,46.9246239 64.281631,47.2166713 C64.7218653,49.0020745 64.8587349,50.5122907 64.7117926,51.9725276 L63.1985243,51.815364 C63.3247288,50.5393878 63.2014869,49.1983785 62.8062833,47.596634 C62.7316271,47.2973607 62.6617111,46.9914636 62.59061,46.6855666 C62.3441262,45.6034858 62.1100851,44.5804167 61.5928246,43.6850054 C61.3433783,43.2466333 60.9837252,43.0202213 60.3118199,42.8751008 C60.0653361,42.8203043 59.8229999,42.7926049 59.5765161,42.7630991 L59.309887,42.7311847 C58.3547622,42.6167743 57.3463117,42.5818491 56.3183084,42.6282154 C54.5526312,42.69084 52.9380438,43.1304165 51.646374,43.8993742 C51.2730932,44.1077214 50.9300304,44.347381 50.5851901,44.6358154 L50.5733399,44.6520737 C50.1301431,45.3421486 50.2551625,49.9926269 50.6491811,53.9036534 L49.1359128,54.060817 Z" id="Fill-50" fill="#332E2E" transform="translate(56.768517, 47.560817) scale(-1, 1) rotate(-3.000000) translate(-56.768517, -47.560817) "></path>
                    <path d="M51,56.9305382 C51.8888889,62.9749909 52.1851852,66.9749909 51.8888889,68.9305382" id="Path-36" stroke="#332E2E"></path>
                    <path d="M64,55.9305382 C64.8888889,61.9749909 65.1851852,65.9749909 64.8888889,67.9305382" id="Path-36-Copy" stroke="#332E2E" transform="translate(64.500000, 61.930538) scale(-1, 1) translate(-64.500000, -61.930538) "></path>
                    <path d="M0,116.051487 C14.7499651,86.2142924 34.092094,70.5465373 47.5856288,67.5346082 C51.034907,66.7646853 50.0248373,70.9760727 57.492535,70.9760727 C64.9602328,70.9760727 66.026464,65.8273423 67.878769,65.7795437 C76.4755883,66.3972035 77.4078977,64.9641547 102.121094,76.1769633 C114.019262,81.8064112 120.978897,89.7475538 123,100.000391 C125.021103,110.253229 121.939071,123.896611 113.753906,140.930538 L102.121094,140.930538 C100.949805,137.743761 107.722556,108.496784 103.920627,103.935086 C100.118698,99.3733888 102.121094,98.810204 86.9063604,91.9629664 L90.0566406,139.930538 L41.7063235,140.930538 C36.6508141,136.712751 29.523065,94.1072219 30.604762,95.9123927 C20.5761659,104.790948 16.5303947,113.504235 14.7499651,117.820594 C13.5630121,120.698167 16.146357,128.068149 22.5,139.930538 L7.04040593,139.930538 L0,116.051487 Z" id="Path" stroke="#332E2E" fill="#D6E2FD"></path>
                    <path d="M64.5,67.9305382 C67.2828348,80.6739189 68.3661682,90.9247269 67.75,98.6829624 C67.1338318,106.441198 67.1338318,113.846526 67.75,120.898947 L70.078855,122.930538 C70.078855,104.133445 70.078855,91.7384726 70.078855,85.74562 C70.078855,79.7527674 68.2192367,73.8144068 64.5,67.9305382 Z" id="Path-5" stroke="#332E2E" stroke-linejoin="round"></path>
                    <polygon id="Path-40" stroke="#332E2E" points="56.7685169 124.038108 73.6977698 122.78417 74.8180125 133.238194 58.8704479 134.213902"></polygon>
                    <path d="M51.5,69.9305382 C50.5313475,80.8074467 50.6980142,89.3248124 52,95.4826353 C53.9529788,104.71937 59.5,115.556161 62,118.598016 C63.6666667,120.625919 66.3596183,122.070094 70.078855,122.930538 L65.0977369,118.598016 C60.0276279,112.28923 56.5771445,104.923641 54.7462867,96.5012494 C52.9154289,88.0788574 52.357881,79.2219537 53.0736429,69.9305382" id="Path-39" stroke="#332E2E" stroke-linejoin="round"></path>
                </g>
            </g>
        </g>
    </g>
</svg>