<?xml version="1.0" encoding="UTF-8"?>
<svg width="300px" height="180px" viewBox="0 0 300 180" version="1.1" xmlns="http://www.w3.org/2000/svg" xmlns:xlink="http://www.w3.org/1999/xlink">
    <title>paula</title>
    <g id="Home-page" stroke="none" stroke-width="1" fill="none" fill-rule="evenodd">
        <g id="Team-/-m" transform="translate(-602.000000, -1016.000000)">
            <g id="paula" transform="translate(602.000000, 1016.000000)">
                <g id="Group-5-Copy-2">
                    <g id="Group-3-Copy" fill="#FFFFFF">
                        <rect id="Rectangle-Copy-2" x="0" y="1.13686838e-13" width="300" height="179" rx="12"></rect>
                    </g>
                    <g id="Ines" transform="translate(128.000000, 72.907974)" stroke="#332E2E">
                        <g id="Caroline" transform="translate(0.000000, 27.092026)">
                            <path d="M0.923116961,13.8126582 C3.58526379,5.08358778 3.69314533,1.43011603 3.69314533,0 M16.7963131,1.70472925 C16.7963131,1.70472925 18.0885204,5.74070558 20.672935,13.8126582" id="Shape"></path>
                        </g>
                        <path d="M68.0122902,37.6688414 C68.0122902,37.6688414 62.7494728,23.0516584 65.8090125,23.757894 C67.8487057,24.2287177 69.2013882,26.5077351 69.86706,30.5949463 C65.1149778,20.8304911 63.2986952,15.6244181 64.4182124,14.9767273 C65.5377295,14.3290366 67.7153329,17.977103 70.9510227,25.9209266 C68.887579,17.0160619 68.182383,12.5636295 68.8354346,12.5636295 C69.8150121,12.5636295 74.0296948,25.9209266 74.0296948,25.9209266 C74.0296948,25.9209266 70.1622238,12.0879485 71.8387663,12.0879485 C73.5153088,12.0879485 76.2681824,25.9209266 76.2681824,25.9209266 C76.2681824,25.9209266 75.1561118,16.2270069 76.9884465,18.4732797 C78.8207811,20.7195525 81.1660699,27.8247121 81.1660699,29.3522701 C81.1660699,30.3706421 80.8861906,32.8159673 80.326432,36.6882458" id="Path-38" transform="translate(72.632050, 24.878395) rotate(9.000000) translate(-72.632050, -24.878395) "></path>
                        <polygon id="Path-10" fill="#FFFFFF" transform="translate(67.577768, 20.541399) rotate(3.000000) translate(-67.577768, -20.541399) " points="54.7864353 0.81554642 54.7864353 4.63774427 77.9367928 40.267252 80.3691005 37.2825172 58.3217779 2.90038161"></polygon>
                    </g>
                </g>
                <path d="M149,114 C148.781957,117.031651 145.381299,118.547477 138.798026,118.547477 C132.214753,118.547477 128.897342,116.698483 128.845793,113.000494 C112.107452,115.524287 100.661133,125.249325 94.5068359,142.175609 C85.2753906,167.565034 88.0488281,178.999978 98.7062264,178.999978 C105.811159,178.999978 115.857681,178.625531 128.845793,177.876638 C132.865815,169.167667 134.534276,164.813181 133.851176,164.813181 C133.168076,164.813181 123.376864,161.343553 104.477539,154.404297 L114.036133,137.06543 L117.382107,159.76852 L133.851176,165.13083 L150,167.475591" id="Path-42" stroke="#332E2E" fill="#5C62FF"></path>
                <path d="M148.672935,114 C161.841238,109.837257 171.929739,121.938859 178.938438,150.304808 C180.720591,156.032403 185.159918,142.660964 192.256419,110.190491 L205.936793,113.175226 C201.521901,139.126176 197.792,155.845124 194.747091,163.332071 C190.179728,174.562492 184.731445,179 150,178.048356 C147.036179,178.048356 148.708597,177.070097 155.017255,175.113579 L156.230251,172.149936 L151.195638,167.95333 L148.672935,166.67936" id="Path-43" stroke="#332E2E" fill="#5C62FF"></path>
                <path d="M132.930715,168.476443 C136.013892,166.105579 138.763749,165.13083 141.204597,165.13083 C145.455385,165.13083 152.239868,167.846915 154.993542,170.863892 C156.829325,172.87521 156.621317,174.291772 154.369518,175.113579 C154.572475,173.274843 153.115969,171.560985 150,169.972006" id="Path-44" stroke="#332E2E" fill="#FFFFFF"></path>
                <path d="M148.672935,57.1534238 C145.701148,55.8508054 141.217045,55.8508054 137.5,57.1534238 C131.693145,53.9937049 119.200894,56.7125614 115.509781,64.0156293 C111.983478,70.9926119 110.200871,84.4206507 110.161961,104.299746 L131.693145,100.646134 L162.726683,103 C160.908894,94.5577582 160,86.1485628 160,77.7724139 C160,65.2081904 158.507585,61.4642297 148.672935,57.1534238 Z" id="Path-45" stroke="#332E2E" fill="#332E2E"></path>
                <path d="M137.969697,59.5 C142.807067,59.5 147.305323,61.7272659 150.530012,65.6555956 C153.588127,69.3810046 155.5,74.6298769 155.5,80.9645929 C155.5,87.6425441 154.201902,93.1375663 151.657077,96.9183873 C149.25459,100.487737 145.732909,102.5 141.168231,102.5 C136.184829,102.5 130.977786,100.12486 127.175134,95.9701574 C123.77589,92.2562112 121.5,87.1171253 121.5,80.9645929 C121.5,74.5258492 123.219545,69.2068696 126.108149,65.4680281 C129.053501,61.6557351 133.215218,59.5 137.969697,59.5 L137.969697,59.5 Z" id="Oval" stroke="#332E2E" fill="#FFFFFF"></path>
                <polygon id="Path-46" stroke="#332E2E" fill="#FFFFFF" stroke-linejoin="round" points="160 178.048356 162.726683 137.048356 170 178.048356"></polygon>
                <path d="M130.11359,175.389648 C135.327452,177.101793 139.948743,177.957865 143.977466,177.957865 C148.006188,177.957865 151.309887,177.101793 153.888563,175.389648 C153.583849,174.348281 153.008607,173.518434 152.162837,172.900107 C150.894183,171.972618 149,171.05145 145.955611,170.471681" id="Path-47" stroke="#332E2E" fill="#FFFFFF"></path>
                <path d="M145.554268,172.692177 C147.683285,173.196688 149.165195,173.676316 150,174.131062 C150.834805,174.585808 151.770705,175.205228 152.807701,175.98932" id="Path-48" stroke="#332E2E"></path>
            </g>
        </g>
    </g>
</svg>