<?xml version="1.0" encoding="UTF-8"?>
<svg width="300px" height="180px" viewBox="0 0 300 180" version="1.1" xmlns="http://www.w3.org/2000/svg" xmlns:xlink="http://www.w3.org/1999/xlink">
    <title>Group 23</title>
    <g id="Home-page" stroke="none" stroke-width="1" fill="none" fill-rule="evenodd">
        <g id="Team-/-m" transform="translate(-200.000000, -1016.000000)">
            <g id="Group-23" transform="translate(200.000000, 1016.000000)">
                <rect id="Rectangle-Copy-3" fill="#FFFFFF" x="0" y="0" width="300" height="179" rx="12"></rect>
                <path d="M168.404737,98 L200.426237,109.303511 C200.560581,109.333427 200.693533,109.368079 200.824881,109.40773 C205.239343,110.743491 206.370002,116.068359 209.684103,123.078437 C212.012352,128.008984 215.614686,156.702256 213.199718,174.700558 C212.398471,180.672098 163.984531,178.994745 143.255284,178.000622 C142.439685,178.025353 141.617428,178.049607 140.793813,178.07346 L137.184362,178.175054 C117.532908,178.711545 98.2667765,178.954761 98.2667765,177.845909 C98.2667765,170.341862 97.5310327,154.095761 97.5163178,142.752432 L97.517007,141.735106 C97.5317083,136.385452 97.7262852,132.285533 98.2667765,130.990547 C98.8923716,129.489881 99.1327033,128.051001 99.3426946,126.65386 L99.4207123,126.13185 L99.4207123,126.13185 L99.4731979,125.7859 C99.4820626,125.728375 99.4910031,125.670914 99.5000449,125.613517 L99.5557177,125.269889 C100.1142,121.927908 101.194972,118.794061 107.932762,115.578298 C108.354061,114.493069 114.768031,111.418073 121.462302,108.457984 L122.751923,107.890571 C129.918961,104.752312 136.987852,101.899335 136.987852,101.899335 L136.987852,101.899335 L168.404737,98 Z" id="Combined-Shape" stroke="#332E2E" fill="#332E2E"></path>
                <polygon id="Fill-8" stroke="#332E2E" fill="#FFFFFF" points="152.422211 101 148.162762 114 129.422211 105.36967 133.964601 101"></polygon>
                <polygon id="Fill-12" stroke="#332E2E" fill="#FFFFFF" points="150 101 153.927992 114 167.381484 98 163 96.5"></polygon>
                <g id="Group-7" transform="translate(122.000000, 29.000000)">
                    <path d="M26.0641448,60.9537963 C15.1211727,61.8181329 5.29476088,50.4518686 4.11624506,35.5650137 C2.93772925,20.6788388 10.8537335,7.91032265 21.7967056,7.04598605 C32.7403586,6.18232949 41.6932662,17.5880364 42.871782,32.4742113 C44.049617,47.3603861 37.0077977,60.0894597 26.0641448,60.9537963 Z" id="Fill-26"></path>
                    <path d="M28.5059278,64.8493211 C17.95931,66.4241514 7.62380276,55.4747082 5.40508554,40.4212036 C5.19397497,38.9703214 5.07059866,37.5380315 5,36.1229566 C7.46478441,50.7515945 17.6426442,61.276171 27.995287,59.7371479 C37.5028022,58.322073 43.9122012,47.2142516 43.4543381,34 C43.5071157,34.2478963 43.5427578,34.4951041 43.5777144,34.7430004 C45.7964316,49.7965051 39.0525457,63.2751794 28.5059278,64.8493211" id="Fill-28" fill="#332E2E"></path>
                    <path d="M12.3594006,14.5625881 C15.771613,12.345765 21.7524667,10.5660156 24.2438174,10.1420033 C26.7351682,9.71865055 31.7781553,9.30189203 35.3106171,12.298333 C38.8430788,15.294774 41.8749674,24.0348331 41.8749674,24.0348331 L42.6498737,26.963353 C42.6498737,26.963353 44.7158388,27.4697937 44.9325958,24.7173411 C45.1324199,22.1950652 44.9325958,17.7028159 44.9325958,17.6055769 C44.9325958,16.2843171 43.9551572,11.4127212 42.6498737,10.1420033 C41.3452675,8.87194496 41.4193916,6.73437384 41.9267385,5.88700882 C42.4340853,5.04030323 43.1000107,3.22645702 39.4721556,1.39113541 C35.8443005,-0.444186191 27.3221541,0.33692247 24.2438174,0.830834065 C21.1654808,1.32474566 16.2962584,0.835321604 8.48517004,6.61214175 C8.48517004,6.61214175 8.94718817,16.7794112 12.3594006,14.5625881 Z" id="Fill-30" stroke="#332E2E" fill="#332E2E"></path>
                    <path d="M8.48517004,6.61214175 C8.48517004,6.61214175 4.81509929,10.2413674 3.45791699,12.2775884 C2.10073469,14.3138094 0.775394399,17.201992 0.226040236,20.0209854 C-0.323313926,22.8399789 0.238302998,25.4878331 0.746760116,28.0374703 C1.25521723,30.5871075 2.01743781,31.6298249 2.77598331,32.9764639 C2.87232557,33.1474995 3.34221798,35.4377031 4.45412937,34.9254855 C5.72712014,34.3390032 4.33145026,32.9764639 4.33145026,32.9764639 C4.33145026,32.9764639 4.59371137,25.7575335 5.12515435,22.8892595 C5.65659732,20.0209854 7.87998502,18.5146073 9.2974858,16.9493648 C10.7149866,15.3841222 11,13.5863326 11,13.4105522 C11,13.2347718 11,5 11,5 L8.48517004,6.61214175 Z" id="Fill-32" stroke="#332E2E" fill="#332E2E"></path>
                    <path d="M44.3303314,26.6194515 C46.5173638,26.8769746 48.0052964,29.6265081 47.6537429,32.7607853 C47.3021895,35.8950626 45.2448269,38.2267334 43.0577935,37.9685247" id="Path" stroke="#332E2E" transform="translate(45.381484, 32.303755) rotate(-12.000000) translate(-45.381484, -32.303755) "></path>
                    <path d="M3.90197912,34.1609805 C6.08865329,34.4129315 7.56977927,37.1583396 7.21018746,40.2931 C6.85059566,43.4278603 4.78700816,45.7644385 2.60033474,45.5118019" id="Path-Copy" stroke="#332E2E" transform="translate(4.932158, 39.845742) scale(-1, 1) rotate(9.000000) translate(-4.932158, -39.845742) "></path>
                    <path d="M22.1587725,60.187599 C23.2388259,60.0599351 20.8823341,60.1214493 21.5587851,59.6 C22.3333014,59.0033667 23.2855237,58.451266 23.8720547,57.9148011 C24.0704758,57.7333172 24.9555259,56.1607895 24.6666667,56 C24.6666667,56 28.0433622,56.001861 28.0687125,56 C27.8158773,56.0212153 29.7883799,58.2696334 29.9084599,58.451266 C30.2300076,58.9358677 32.682455,59.0464401 33.5410274,59.1674044 C34.4382922,59.2943239 32.6217478,59.4484139 33.5410274,59.4115663 C33.7678452,59.4022613 35.9799867,59.2965571 36,59.1674044 C35.9833222,59.2764584 35.8398933,59.3646693 35.7024683,59.4432031 C34.2601734,60.2672493 32.6631087,61.0068066 31.0680454,61.7363146 C31.0680454,61.7363146 23.4996664,62.0951134 23.2855237,61.9756378 C23.0713809,61.8561623 19.0086724,60.315635 19,60.3126575 C19.5643763,60.5266713 21.5243496,60.2627829 22.1587725,60.187599 Z" id="Fill-46" fill="#332E2E"></path>
                    <path d="M13,54.5949347 C13.5503517,52.8079333 15.4663714,52.5 19.3446078,50.0707514 C20.6105377,48.2775815 21.4249922,47.2814045 21.7879714,47.0822207 C23.4995471,46.0822363 24.4829582,45.1120617 26.7886233,45.0321172 C28.0556516,44.97453 29.64659,44.8984496 30.7275326,45.7477226 C31.8084751,46.5969957 32.7203885,47.1495034 33.419837,48.3446066 C34.1444358,49.5790047 37.0131115,51.1419505 37.4382755,51.341592 C39.9052639,52.5 41.1534895,50.8570718 40.984915,52.5 L33.419837,59.6341925 C34.7427892,57.791636 33.8732211,54.9616182 33.419837,53.1594783 C33.3341903,52.8227627 32.3406755,50.8733038 32.1816088,50.5467913 C31.4222995,48.9881759 30.1991722,46.6885954 28.8364208,46.6885954 C27.4736693,46.6885954 26.9861015,46.6364282 25.8067593,46.6885954 C23.7811454,46.759055 23.5044402,49.0080632 22.3596793,50.0707514 C22.0741901,50.2270272 21.4997407,51.3495436 20.6363311,53.4383007 C20.1278884,54.2147113 19.3446078,57.0559409 21.1494401,60 L13,54.5949347 Z" id="Fill-50" fill="#332E2E"></path>
                    <path d="M19,63 C19.8888889,67.5333395 20.1851852,70.5333395 19.8888889,72" id="Path-36" stroke="#332E2E"></path>
                    <path d="M35,61 C35.8717949,64.7301481 36.17357,67.3968148 35.9053254,69" id="Path-36-Copy" stroke="#332E2E" transform="translate(35.500000, 65.000000) scale(-1, 1) translate(-35.500000, -65.000000) "></path>
                </g>
                <path d="M146.5,111 C154.582007,128.067735 157.659979,139.003465 155.733915,143.80719 C152.84482,151.012779 152.177077,159.277442 152.177077,162.159677 C152.177077,164.081167 152.177077,169.570578 152.177077,178.627908 L157.5,178.627908 C157.478228,166.292103 157.659949,158.028355 158.045161,153.836663 C158.62298,147.549125 161.422211,142.1326 161.422211,137.512268 C161.422211,134.432047 158.95762,125.594624 154.028439,111" id="Path-6" stroke="#FFFFFF"></path>
                <line x1="197.5" y1="149" x2="197.5" y2="179.5" id="Path-7" stroke="#FFFFFF"></line>
                <path d="M121.918416,144 C121.918416,144.910252 122.492658,162.053565 120.594159,167.981345 C119.328493,171.933199 117.463773,175.606084 115,179" id="Path-8" stroke="#FFFFFF"></path>
                <line x1="197.5" y1="148" x2="192.5" y2="179.5" id="Path-41" stroke="#FFFFFF"></line>
                <circle id="Oval" stroke="#FFFFFF" cx="152.5" cy="117.5" r="1"></circle>
                <circle id="Oval-Copy" stroke="#FFFFFF" cx="156.5" cy="126.5" r="1"></circle>
                <circle id="Oval-Copy-2" stroke="#FFFFFF" cx="158.5" cy="136.5" r="1"></circle>
                <circle id="Oval-Copy-3" stroke="#FFFFFF" cx="155.5" cy="152.5" r="1"></circle>
                <circle id="Oval-Copy-4" stroke="#FFFFFF" cx="155.5" cy="162.5" r="1"></circle>
                <circle id="Oval-Copy-5" stroke="#FFFFFF" cx="155.5" cy="174.5" r="1"></circle>
            </g>
        </g>
    </g>
</svg>