<?xml version="1.0" encoding="UTF-8"?>
<svg width="301px" height="193px" viewBox="0 0 301 193" version="1.1" xmlns="http://www.w3.org/2000/svg" xmlns:xlink="http://www.w3.org/1999/xlink">
    <title>PO illustration</title>
    <g id="Home-page" stroke="none" stroke-width="1" fill="none" fill-rule="evenodd">
        <g id="Homepage-/-m" transform="translate(-41.000000, -632.000000)">
            <g id="PO-illustration" transform="translate(42.000000, 632.000000)">
                <rect id="Rectangle" fill="#FAF2E6" x="8.52651283e-14" y="14" width="300" height="179" rx="12"></rect>
                <path d="M89.5,14 C101.5,23.7451461 104.5,37.0784794 98.5,54 C89.5,79.3822808 66.7265625,77.87 45.9980469,86.435 C25.2695313,95 31.5292969,115.256748 21.5,123.5 C14.8138021,128.995501 7.64713542,128.995501 0,123.5 C0,75.9749349 0,43.4749885 0,26.0001607 C0,22.6011343 2.24004991,14 12.8286792,14 C19.8877653,14 45.4448723,14 89.5,14 Z" id="Path-17" fill-opacity="0.5" fill="#DDD1BF"></path>
                <path d="M193.5,192.747304 C200.009115,175.39525 212.343099,163.603257 230.501953,157.371326 C257.740234,148.023428 276.232422,150.368402 283.5,157.371326 C290.767578,164.37425 259.929688,170.375885 247.498047,174.937943 C239.210286,177.979314 234.877604,183.730884 234.5,192.192651 L193.5,192.747304 Z" id="Path-16" fill-opacity="0.4" fill="#DBD1C1" transform="translate(239.047329, 171.977930) scale(-1, 1) translate(-239.047329, -171.977930) "></path>
                <g id="Group-7" transform="translate(89.451096, 27.104435)">
                    <g id="Group-4" transform="translate(106.548904, 13.895565)" stroke="#332E2E">
                        <line x1="7.81395349" y1="4.24136011" x2="0" y2="24.8759755" id="Path-8"></line>
                        <path d="M7.71987868,2.74524707 L4.24388542,15.4909166 C7.28487461,15.3129222 9.89095136,15.5569062 12.0621157,16.2228686 C15.3188621,17.2218121 18.5570913,20.7788906 21.8436968,20.7786619 C25.1303023,20.7784333 28.3233369,19.6429634 30.8816597,20.7780332 C33.4399824,21.9131029 38.1849027,26.7682323 40.8699805,26.7682323 C42.6600323,26.7682323 44.5908235,22.4221467 46.6623543,13.7299755 C44.4711488,13.9197376 42.5406839,13.5778497 40.8709597,12.704312 C38.3663733,11.3940054 38.9065761,9.47746108 34.5018406,8.31035226 C30.097105,7.14324345 26.9283472,9.47829441 23.9328816,8.31108755 C20.9374159,7.14388069 21.6943134,3.77091356 15.8260084,2.74468312 C11.9138051,2.06052948 9.21176184,2.06071747 7.71987868,2.74524707 Z" id="Path-15" transform="translate(25.453120, 14.499971) rotate(5.000000) translate(-25.453120, -14.499971) "></path>
                    </g>
                    <circle id="Oval" stroke="#332E2E" cx="142.048904" cy="26.3955654" r="1"></circle>
                    <circle id="Oval-Copy" stroke="#332E2E" cx="119.048904" cy="18.3955654" r="1"></circle>
                    <circle id="Oval-Copy-2" stroke="#332E2E" cx="117.048904" cy="23.3955654" r="1"></circle>
                    <circle id="Oval-Copy-3" stroke="#332E2E" cx="123.048904" cy="22.3955654" r="1"></circle>
                    <circle id="Oval-Copy-4" stroke="#332E2E" cx="125.048904" cy="28.3955654" r="1"></circle>
                    <circle id="Oval-Copy-5" stroke="#332E2E" cx="130.048904" cy="25.3955654" r="1"></circle>
                    <circle id="Oval-Copy-6" stroke="#332E2E" cx="132.048904" cy="30.3955654" r="1"></circle>
                    <circle id="Oval-Copy-7" stroke="#332E2E" cx="136.048904" cy="27.3955654" r="1"></circle>
                    <circle id="Oval-Copy-8" stroke="#332E2E" cx="141.048904" cy="33.3955654" r="1"></circle>
                    <circle id="Oval-Copy-9" stroke="#332E2E" cx="147.048904" cy="31.3955654" r="1"></circle>
                    <circle id="Oval-Copy-10" stroke="#332E2E" cx="146.048904" cy="37.3955654" r="1"></circle>
                    <polygon id="Path-10" stroke="#E74624" fill="#E74624" points="2.5489044 13.5220403 13.2798014 8.89556538 34.2244276 30.3955654 41.5489044 32.8955654 52.2179959 31.8955654 97.5489044 37.3281881 97.5489044 48.4377237 62.8312964 45.2635707 60.9388416 65.8955654 31.899831 63.6724184 31.899831 42.0894176"></polygon>
                    <path d="M42.1364019,19.5636759 C42.436287,19.3954776 42.6120527,19.4134662 42.8483676,19.4391091 C45.0975581,19.6482249 47.9961161,19.9240951 52.365347,20.3456469 C52.9717615,21.2196796 53.0489044,21.9233199 53.0489044,22.862132 C53.0489044,24.9620429 52.4195782,26.8662425 51.3910387,28.2434391 C50.4078393,29.5599262 49.0559758,30.3955654 47.5492502,30.3955654 C46.0425245,30.3955654 44.690661,29.5599262 43.7074616,28.2434391 C42.6789221,26.8662425 42.0495959,24.9620429 42.0495958,22.8617779 L42.0495958,22.8617779 L42.0490563,22.0999461 C42.0489003,21.9185764 42.0484303,21.7478016 42.0479873,21.587045 L42.0473267,20.9293157 C42.0493524,20.269315 42.0648384,19.8381363 42.1364019,19.5636759 Z" id="Oval" stroke="#332E2E"></path>
                    <polyline id="Path-12" fill="#5C62FF" points="31.7395719 63.8955654 60.7216109 65.8955654 67.5489044 94.3625208 58.5489044 115.895565"></polyline>
                    <path d="M97.5489044,41.604504 C99.032997,41.604504 100.280424,41.604504 101.291187,41.604504 C102.80733,41.604504 105.544235,37.7593921 107.984988,41.604504 C110.425741,45.4496158 104.242705,49.3135332 102.766946,47.3815745 C101.783107,46.0936021 100.043759,44.931599 97.5489044,43.8955654" id="Path-13" stroke="#332E2E"></path>
                    <path d="M7.65643746,10.8955654 C6.68985563,9.76673734 5.87741254,8.8179211 5.21910818,8.04911665 C4.23165166,6.89590999 -0.727026887,6.92046184 0.859470078,2.95768874 C2.44596704,-1.00508437 9.6646265,1.58125258 9.02994068,3.76203875 C8.60681679,5.21589619 8.7798047,7.17540261 9.5489044,9.640558" id="Path-13" stroke="#332E2E"></path>
                    <path d="M46.6321424,125.619732 C47.7113206,125.128476 49.0933279,125.464802 50.4514661,126.304955 C51.9253952,127.216736 53.379657,128.742872 54.4726886,130.659402 C55.5593472,132.564757 56.0872435,134.500432 56.0467657,136.093074 C56.0273687,136.85627 55.8774757,137.537216 55.5857722,138.085303 C55.327159,138.571217 54.955559,138.948393 54.4656664,139.171399 C53.3864882,139.662655 52.0044809,139.326328 50.6463427,138.486176 C49.1724136,137.574395 47.7181518,136.048258 46.6251202,134.131729 C45.5384616,132.226374 45.0105653,130.290699 45.0510431,128.698057 C45.0704401,127.934861 45.2203331,127.253915 45.5120366,126.705827 C45.7706498,126.219914 46.1422498,125.842737 46.6321424,125.619732 Z" id="Oval" stroke="#332E2E"></path>
                    <path d="M42.3170219,19.6989791 L52.9967781,20.680182 L55.860553,30.8955654 C58.3194539,26.8473679 59.5489044,23.6807012 59.5489044,21.3955654 C59.5489044,17.9678617 59.7544961,11.8955654 47.7436065,11.8955654 C39.7363468,11.8955654 36.0246151,17.1420763 36.6084113,27.6350981 L42.3170219,19.6989791 Z" id="Path-14" stroke="#332E2E" stroke-linejoin="round"></path>
                    <path d="M31.7395719,63.8955654 C30.2791269,77.5943654 29.5489044,84.4437655 29.5489044,84.4437655 C29.5489044,84.4437655 32.802537,91.9871858 39.3098021,107.074027 L42.4635513,124.895565 C53.18712,124.895565 58.5489044,124.895565 58.5489044,124.895565 C58.5489044,124.895565 55.7105301,97.2856067 55.7105301,97.2856067 C55.7105301,97.2856067 52.8713345,90.9540703 47.1929432,78.2909976" id="Path-11" stroke="#332E2E" fill="#5C62FF"></path>
                </g>
                <polyline id="Path-9" stroke="#332E2E" points="5.68434189e-14 72 6.5011228e-14 66.5 79.6208384 154 270.988281 192"></polyline>
                <polyline id="Path-9-Copy" stroke="#332E2E" points="8.52909381e-14 71.4865045 77.5429688 156 256.316346 192 270.988281 192"></polyline>
                <path d="M284.594658,14 C276.198219,4.66666667 262.333333,2.84217094e-14 243,2.84217094e-14 C214,2.84217094e-14 197.812868,14 205.58727,28.0248993 C213.361672,42.0497985 233.974864,36.4244792 239.047329,25.2122396 C242.428972,17.7374132 248.746529,14 258,14 L284.594658,14 Z" id="Path-18" fill="#3D4697"></path>
            </g>
        </g>
    </g>
</svg>