<?xml version="1.0" encoding="UTF-8"?>
<svg width="300px" height="193px" viewBox="0 0 300 193" version="1.1" xmlns="http://www.w3.org/2000/svg" xmlns:xlink="http://www.w3.org/1999/xlink">
    <title>UX/UI illustration</title>
    <g id="Home-page" stroke="none" stroke-width="1" fill="none" fill-rule="evenodd">
        <g id="Homepage-/-m" transform="translate(-362.000000, -646.000000)">
            <g id="UX/UI-illustration" transform="translate(362.000000, 646.000000)">
                <rect id="Rectangle-Copy-2" fill="#FAF2E6" x="0" y="0" width="300" height="179" rx="12"></rect>
                <path d="M293.261084,1.42108547e-14 C300,5.74648341 301.684729,13.6088364 298.315271,23.587059 C293.261084,38.5543929 280.47206,37.6626365 268.831415,42.7132155 C257.190771,47.7637945 260.706108,59.7087221 255.073892,64.569574 C251.319081,67.810142 247.29445,67.810142 243,64.569574 C243,39.3201798 243,21.5432352 243,11.2387404 C243,5.42447207 248.537079,1.42108547e-14 254.483403,1.42108547e-14 C258.447619,1.42108547e-14 271.373512,1.42108547e-14 293.261084,1.42108547e-14 Z" id="Path-17-Copy-2" fill-opacity="0.5" fill="#DDD1BF" transform="translate(271.500000, 33.500000) scale(-1, 1) translate(-271.500000, -33.500000) "></path>
                <path d="M185.704135,34.6389185 C188.184503,31.8010825 189.905777,29.9562545 190.867959,29.1044346 C192.311232,27.8267047 194.726887,26.93427 195.904735,28.5102637 C197.082583,30.0862574 194.625604,35.0768454 193.957931,36.2205676 C193.290258,37.3642898 191.568113,38.8729875 190.448328,37.8570749 C189.701805,37.1797998 189.301083,36.7404947 189.246162,36.5391596" id="Path-23" stroke="#332E2E"></path>
                <path d="M200.733993,17.4762505 L197.416501,16.7912657 L181.983885,56.8528784 C181.983885,56.8528784 182.29173,57.6790657 183.460855,57.9073626 C184.753244,58.1599423 185.301011,57.5382812 185.301011,57.5382812 L200.733993,17.4762505 Z" id="Fill-49" fill="#5C62FF"></path>
                <polygon id="Fill-51" fill="#5C62FF" points="200.678623 12.7912657 200.874796 16.7912657 197.817179 16.1387356"></polygon>
                <g id="Group-7-Copy" transform="translate(111.451096, 29.104435)">
                    <g id="designer" transform="translate(0.548904, 0.882057)">
                        <polygon id="Path-10" stroke="#E74624" fill="#E74624" points="7.35529938 64.0135087 0 46.4189141 28.173347 22.0135087 36.5360886 24.8513465 51.4463096 24.8513465 67 9.47585868 77.913112 9.47585868 58.5 36.0135087 52 40.1480485 48.5 52.2679414 25.3362561 49.8413112 25.3362561 40.1756708 14.7351364 49.8413112 48.5 50.0135087 53.6623801 60.0405357"></polygon>
                        <path d="M36.4890013,9.77865293 C36.7619188,9.61980155 37.0160112,9.66478775 37.3634484,9.7011368 C39.1828125,9.86621227 42.6018908,10.1883382 48.0277625,10.7078186 C48.2407725,10.8822734 48.3000338,11.0044922 48.3393726,11.1713476 C48.4682123,11.7178197 48.5280106,12.5458836 48.5276185,13.6541672 C48.5267468,16.1114054 47.8956743,18.3363454 46.7883456,19.9257666 C45.7731837,21.3828949 44.3524049,22.3000226 42.6553522,22.3006217 C40.9120303,22.3012369 39.346035,21.3419003 38.2082357,19.8241901 C37.0256002,18.2466729 36.3013803,16.0654143 36.302233,13.6589087 L36.302233,13.6589087 L36.3027974,12.2873343 C36.3059159,10.9241573 36.3269472,10.1737784 36.4890013,9.77865293 Z" id="Oval" stroke="#332E2E" transform="translate(42.414736, 15.972197) scale(-1, 1) rotate(5.000000) translate(-42.414736, -15.972197) "></path>
                        <polygon id="Path-12" fill="#5C62FF" points="25 61.0135087 53.5780676 62.146252 72 80.6344526 53.6345123 124.447137 39.7843151 125.013509 53.6345123 84.8011193 30.5508503 78.0046591"></polygon>
                        <path d="M46.6282984,123.753517 C47.6516963,123.308631 48.9641505,123.617011 50.2556715,124.384033 C51.6552711,125.215241 53.0375826,126.60473 54.0775521,128.348531 C55.1079881,130.076346 55.6119854,131.830343 55.5763053,133.273338 C55.5593702,133.958238 55.4206888,134.569485 55.1482754,135.061019 C54.9067474,135.496824 54.5583807,135.833968 54.09996,136.03325 C53.0765621,136.478136 51.7641079,136.169756 50.4725869,135.402735 C49.0729873,134.571526 47.6906758,133.182037 46.6507063,131.438237 C45.6202703,129.710421 45.116273,127.956424 45.1519531,126.513429 C45.1688882,125.828529 45.3075696,125.217282 45.579983,124.725748 C45.821511,124.289943 46.1698777,123.952799 46.6282984,123.753517 Z" id="Oval" stroke="#332E2E" transform="translate(50.364129, 129.893384) rotate(-31.000000) translate(-50.364129, -129.893384) "></path>
                        <path d="M74.1806864,118.841437 C75.2024756,118.396397 76.5129868,118.705607 77.8026323,119.473493 C79.2008325,120.306015 80.5818609,121.697499 81.6210464,123.443626 C82.6508578,125.174001 83.1547028,126.930483 83.1193898,128.375398 C83.102626,129.06133 82.9642039,129.67346 82.6921301,130.165673 C82.4510392,130.601834 82.1032908,130.939284 81.6455377,131.138658 C80.6237485,131.583699 79.3132373,131.274489 78.0235918,130.506603 C76.6253916,129.674081 75.2443632,128.282596 74.2051777,126.53647 C73.1753663,124.806095 72.6715213,123.049613 72.7068343,121.604697 C72.7235981,120.918765 72.8620202,120.306636 73.134094,119.814423 C73.3751849,119.378261 73.7229333,119.040812 74.1806864,118.841437 Z" id="Oval-Copy-11" stroke="#332E2E" transform="translate(77.913112, 124.990048) rotate(-48.000000) translate(-77.913112, -124.990048) "></path>
                        <path d="M33.666057,10.1712221 L45.87072,11.2837652 L45.8683993,17.832537 C48.3053499,17.6193315 49.8061784,16.5500034 50.3708847,14.6245527 C50.7002231,13.5016242 52.9384213,12.3855028 53.0218042,10.6581264 C53.10358,8.964045 50.1936871,9.06853016 49.7407633,7.42223177 C49.1911501,5.42448448 49.9372009,3.39434509 48.1907644,2.27577383 C46.3593727,1.10278979 42.5668208,1.43459508 41.1536423,2.89144224 C39.5728478,4.52108492 35.5345133,0.977729764 33.6294557,3.54972327 C31.5076903,6.41429123 26.7957482,9.43647458 29.4687274,10.7395419 C31.1953347,11.5812565 31.589532,16.0869513 33.6639609,16.0862191 C33.6639609,16.0862191 33.6646596,14.1145534 33.666057,10.1712221 Z" id="Path-14" stroke="#332E2E" stroke-linejoin="round" transform="translate(40.846437, 9.699114) scale(-1, 1) rotate(5.000000) translate(-40.846437, -9.699114) "></path>
                        <path d="M25.2181756,60.0135087 C23.0727252,80.5849373 22,90.8706515 22,90.8706515 C22,90.8706515 32.6012191,92.2039849 53.8036572,94.8706515 L66.1607846,124.013509 C74.0535949,120.203985 78,118.299223 78,118.299223 C78,118.299223 61.4539414,86.0417825 61.4539414,86.0417825 C61.4539414,86.0417825 54.4682713,80.8180722 40.496931,70.3706515" id="Path-11" stroke="#332E2E" fill="#5C62FF"></path>
                    </g>
                    <g id="mac" transform="translate(15.548904, 38.895565)">
                        <line x1="-6.46838904e-14" y1="22.8571429" x2="46.3625039" y2="22.8571429" id="Path-19" stroke="#332E2E" stroke-width="2"></line>
                        <polygon id="Path-20" fill="#332E2E" points="26.639448 0 64.9237701 0 46.6305211 24 12.5789426 24"></polygon>
                        <ellipse id="Oval" fill="#FFFFFF" transform="translate(39.889287, 10.976497) rotate(21.000000) translate(-39.889287, -10.976497) " cx="39.8892874" cy="10.9764967" rx="1.7078506" ry="2.85556233"></ellipse>
                    </g>
                </g>
                <path d="M187.961048,38.7912657 L189.246162,36.5391596 C195.068756,35.8195638 197.78624,34.7388812 197.398616,33.297112 C196.817179,31.134458 193.543149,30.7280475 190.492008,32.115632 C188.457915,33.0406883 186.861957,33.8817838 185.704135,34.6389185 L184.301011,38.7912657 L187.961048,38.7912657 Z" id="Path-22" stroke="#332E2E" fill="#FAF2E6"></path>
                <path d="M112.594658,170 C104.198219,160.666667 90.3333333,156 71,156 C42,156 25.8128682,170 33.5872701,184.024899 C41.361672,198.049799 61.9748636,192.424479 67.0473289,181.21224 C70.4289724,173.737413 76.7465295,170 86,170 L112.594658,170 Z" id="Path-18-Copy" fill="#3D4697" transform="translate(72.119794, 174.169649) scale(-1, -1) translate(-72.119794, -174.169649) "></path>
                <polyline id="Path-21" stroke="#332E2E" points="160 128 65.2860442 128 13.6576722 178.747304"></polyline>
                <polyline id="Path-21-Copy" stroke="#332E2E" points="160 132 67.5380575 130.5 17.6449306 179"></polyline>
            </g>
        </g>
    </g>
</svg>