<?xml version="1.0" encoding="UTF-8"?>
<svg width="302px" height="191px" viewBox="0 0 302 191" version="1.1" xmlns="http://www.w3.org/2000/svg" xmlns:xlink="http://www.w3.org/1999/xlink">
    <title>WEB illustration</title>
    <g id="Home-page" stroke="none" stroke-width="1" fill="none" fill-rule="evenodd">
        <g id="Homepage-/-m" transform="translate(-681.000000, -646.000000)">
            <g id="WEB-illustration" transform="translate(681.000000, 646.000000)">
                <rect id="Rectangle-Copy-3" fill="#FAF2E6" x="1" y="3.75166564e-12" width="300" height="179" rx="12"></rect>
                <path d="M191.5,41.538748 C198.009115,24.1866945 210.343099,12.3947018 228.501953,6.16277 C255.740234,-3.18512766 274.232422,-0.840154085 281.5,6.16277 C288.767578,13.1656941 257.929688,19.1673296 245.498047,23.729387 C237.210286,26.7707585 232.906377,32.7767308 232.586319,41.7473037 L191.5,41.538748 Z" id="Path-16-Copy-2" fill-opacity="0.4" fill="#DBD1C1" transform="translate(237.047329, 20.873652) scale(-1, -1) translate(-237.047329, -20.873652) "></path>
                <path d="M236.873961,176.328112 C247.006609,170.272296 249.206518,157.579774 263.609239,150.070294 C278.011961,142.560813 293.013914,138.867188 297.679929,148.151063 C302.345945,157.434938 288.065997,160.924258 277.734328,164.731878 C267.402658,168.539497 265.942764,178.931752 265.942764,179 C265.942764,179.068248 263.609239,195.84375 233.632318,189.55966 C217.017765,186.076736 213.02926,171.922991 214.077809,173.865513 C215.564083,176.618957 226.741313,182.383929 236.873961,176.328112 Z" id="Path-16-Copy" fill="#3D4697" transform="translate(256.255980, 166.805251) scale(-1, 1) translate(-256.255980, -166.805251) "></path>
                <g id="Group-3" transform="translate(35.000000, 26.000000)" stroke="#332E2E" stroke-width="0.8">
                    <g id="web" transform="translate(0.400000, 0.000000)">
                        <polygon id="Fill-2" points="0 4 54.4 4 54.4 -9.09494702e-14 0 -9.09494702e-14"></polygon>
                        <polygon id="Fill-3" points="0 43.2 0 52 2.83639199 52 9.97733168 52 54.4 52 54.4 43.2"></polygon>
                        <path d="M7.7805131,1.65767646 C7.7805131,2.05858265 7.45458207,2.38379327 7.05220966,2.38379327 C6.64983724,2.38379327 6.32390621,2.05858265 6.32390621,1.65767646 C6.32390621,1.25677027 6.64983724,0.932026903 7.05220966,0.932026903 C7.45458207,0.932026903 7.7805131,1.25677027 7.7805131,1.65767646" id="Fill-4"></path>
                        <path d="M3.36543724,1.65767646 C3.36543724,2.05858265 3.03950621,2.38379327 2.63713379,2.38379327 C2.23476138,2.38379327 1.90883034,2.05858265 1.90883034,1.65767646 C1.90883034,1.25677027 2.23476138,0.932026903 2.63713379,0.932026903 C3.03950621,0.932026903 3.36543724,1.25677027 3.36543724,1.65767646" id="Fill-6"></path>
                        <path d="M5.57309241,1.65767646 C5.57309241,2.05858265 5.24716138,2.38379327 4.84432,2.38379327 C4.44194759,2.38379327 4.11601655,2.05858265 4.11601655,1.65767646 C4.11601655,1.25677027 4.44194759,0.932026903 4.84432,0.932026903 C5.24716138,0.932026903 5.57309241,1.25677027 5.57309241,1.65767646" id="Fill-8"></path>
                        <path d="M28.5123531,32.8397678 L28.5123531,32.8397678 C23.5070841,32.8397678 19.4495945,28.7970634 19.4495945,23.8100333 C19.4495945,18.8230032 23.5070841,14.7802988 28.5123531,14.7802988 C33.5176221,14.7802988 37.5751117,18.8230032 37.5751117,23.8100333 C37.5751117,28.7970634 33.5176221,32.8397678 28.5123531,32.8397678" id="Fill-18"></path>
                        <path d="M29.2324966,24.0773508 C30.1385379,23.7993331 30.7964966,22.9592057 30.7964966,21.9653508 C30.7964966,20.7453437 29.8041655,19.7566287 28.5792276,19.7566287 C27.3547586,19.7566287 26.3619586,20.7453437 26.3619586,21.9653508 C26.3619586,22.9442535 27.0011586,23.7726995 27.8851586,24.0633331 C26.0472828,24.3619101 24.642731,25.9473119 24.642731,27.8635313 L32.382069,27.8635313 C32.382069,25.9795526 31.0248828,24.4142428 29.2324966,24.0773508" id="Fill-20" fill="#332E2E"></path>
                        <path d="M39.4102676,47.0892729 C39.4102676,48.5036588 38.2594262,49.6503065 36.8393986,49.6503065 C35.419371,49.6503065 34.2685297,48.5036588 34.2685297,47.0892729 C34.2685297,45.6744198 35.419371,44.527772 36.8393986,44.527772 C38.2594262,44.527772 39.4102676,45.6744198 39.4102676,47.0892729" id="Fill-22"></path>
                        <path d="M27.3065021,48.9108262 C26.3169848,47.9249147 26.3169848,46.3259625 27.3065021,45.3395837 C28.2964883,44.353205 29.9012883,44.353205 30.8912745,45.3395837 C31.8807917,46.3259625 31.8807917,47.9249147 30.8912745,48.9108262 C29.9012883,49.897205 28.2964883,49.897205 27.3065021,48.9108262" id="Fill-28"></path>
                        <path d="M23.9065021,47.1116545 C23.9065021,48.5138917 22.765509,49.6507271 21.3581434,49.6507271 C19.9507779,49.6507271 18.8097848,48.5138917 18.8097848,47.1116545 C18.8097848,45.7094173 19.9507779,44.5721147 21.3581434,44.5721147 C22.765509,44.5721147 23.9065021,45.7094173 23.9065021,47.1116545" id="Fill-32"></path>
                        <path d="M5.93532138,8.89422018 C5.93532138,9.80163257 5.19670069,10.5375618 4.28596966,10.5375618 C3.37523862,10.5375618 2.6370869,9.80163257 2.6370869,8.89422018 C2.6370869,7.98680779 3.37523862,7.25087858 4.28596966,7.25087858 C5.19670069,7.25087858 5.93532138,7.98680779 5.93532138,8.89422018" id="Fill-40"></path>
                    </g>
                    <line x1="54.8" y1="43.2" x2="54.8" y2="4" id="Path-24"></line>
                    <line x1="0.4" y1="4" x2="0.4" y2="43.2" id="Path-25"></line>
                </g>
                <g id="Group-7-Copy-2" transform="translate(179.451096, 101.104435) scale(-1, 1) translate(-179.451096, -101.104435) translate(135.451096, 31.104435)">
                    <polygon id="Path-10" stroke="#E74624" fill="#E74624" points="7.90420378 64.8955654 0.548904404 47.3009708 28.7222514 22.8955654 37.084993 25.7334032 49.2664578 24.5982681 70.5489044 47.3009708 63.3705799 56.9577487 47.3607679 50.7233679 25.8851605 50.7233679 25.8851605 41.0577275 15.2840408 50.7233679 47.3607679 50.7233679 54.2112845 60.9225924"></polygon>
                    <path d="M37.0379057,10.6607096 C37.3108232,10.5018582 37.5649156,10.5468444 37.9123528,10.5831935 C39.7317169,10.748269 43.1507952,11.0703949 48.576667,11.5898753 C48.7896769,11.7643301 48.8489382,11.8865489 48.888277,12.0534043 C49.0171167,12.5998764 49.076915,13.4279403 49.0765229,14.5362239 C49.0756512,16.9934621 48.4445787,19.2184021 47.33725,20.8078233 C46.3220881,22.2649516 44.9013093,23.1820793 43.2042566,23.1826784 C41.4609347,23.1832936 39.8949394,22.223957 38.7571401,20.7062468 C37.5745046,19.1287296 36.8502847,16.947471 36.8511374,14.5409654 L36.8511374,14.5409654 L36.8517018,13.1693909 C36.8548203,11.806214 36.8758516,11.0558351 37.0379057,10.6607096 Z" id="Oval" stroke="#332E2E" transform="translate(42.963640, 16.854253) scale(-1, 1) rotate(5.000000) translate(-42.963640, -16.854253) "></path>
                    <polygon id="Path-12" fill="#5C62FF" points="25.5489044 61.8955654 54.126972 63.0283087 72.5489044 81.5165093 54.1834167 125.329194 40.3332195 125.895565 54.1834167 85.683176 31.0997547 78.8867158"></polygon>
                    <path d="M47.1772028,124.635573 C48.2006007,124.190688 49.5130549,124.499068 50.8045759,125.266089 C52.2041755,126.097298 53.586487,127.486786 54.6264565,129.230587 C55.6568925,130.958403 56.1608898,132.7124 56.1252098,134.155395 C56.1082747,134.840295 55.9695932,135.451542 55.6971798,135.943075 C55.4556518,136.378881 55.1072851,136.716025 54.6488644,136.915307 C53.6254665,137.360193 52.3130123,137.051813 51.0214913,136.284791 C49.6218917,135.453583 48.2395802,134.064094 47.1996108,132.320293 C46.1691747,130.592478 45.6651774,128.838481 45.7008575,127.395486 C45.7177926,126.710586 45.856474,126.099339 46.1288874,125.607805 C46.3704154,125.172 46.7187821,124.834855 47.1772028,124.635573 Z" id="Oval" stroke="#332E2E" transform="translate(50.913034, 130.775440) rotate(-31.000000) translate(-50.913034, -130.775440) "></path>
                    <path d="M74.7295908,119.723494 C75.75138,119.278453 77.0618912,119.587663 78.3515367,120.355549 C79.7497369,121.188072 81.1307653,122.579556 82.1699508,124.325682 C83.1997622,126.056058 83.7036072,127.81254 83.6682942,129.257455 C83.6515304,129.943387 83.5131083,130.555517 83.2410345,131.04773 C82.9999436,131.483891 82.6521952,131.821341 82.1944421,132.020715 C81.1726529,132.465756 79.8621417,132.156546 78.5724962,131.38866 C77.174296,130.556137 75.7932676,129.164653 74.7540821,127.418527 C73.7242707,125.688151 73.2204257,123.931669 73.2557387,122.486754 C73.2725025,121.800822 73.4109246,121.188692 73.6829984,120.696479 C73.9240893,120.260318 74.2718377,119.922868 74.7295908,119.723494 Z" id="Oval-Copy-11" stroke="#332E2E" transform="translate(78.462016, 125.872104) rotate(-48.000000) translate(-78.462016, -125.872104) "></path>
                    <path d="M31.5922329,11.1677896 L43.7968959,12.2803327 L43.7945752,18.8291045 C48.5976537,18.9413793 51.0942161,17.029002 51.2842622,13.0919726 C51.5693315,7.18642857 47.8047662,0.111755675 37.7970001,2.283391 C27.7892339,4.45502632 26.8774248,17.08445 31.5901368,17.0827866 C31.5901368,17.0827866 31.5908355,15.1111209 31.5922329,11.1677896 Z" id="Path-14" stroke="#332E2E" stroke-linejoin="round" transform="translate(40.071729, 10.357915) scale(-1, 1) rotate(5.000000) translate(-40.071729, -10.357915) "></path>
                    <path d="M25.76708,60.8955654 C23.6216296,81.466994 22.5489044,91.7527082 22.5489044,91.7527082 C22.5489044,91.7527082 33.1501235,93.0860416 54.3525616,95.7527082 L66.709689,124.895565 C74.6024993,121.086042 78.5489044,119.18128 78.5489044,119.18128 C78.5489044,119.18128 62.0028458,86.9238392 62.0028458,86.9238392 C62.0028458,86.9238392 55.0171757,81.7001289 41.0458354,71.2527082" id="Path-11" stroke="#332E2E" fill="#5C62FF"></path>
                    <g id="Group-8" transform="translate(15.548904, 38.895565)">
                        <line x1="-6.46838904e-14" y1="22.8571429" x2="46.3625039" y2="22.8571429" id="Path-19" stroke="#332E2E" stroke-width="2"></line>
                        <polygon id="Path-20" fill="#332E2E" points="26.639448 0 64.9237701 0 46.6305211 24 12.5789426 24"></polygon>
                        <ellipse id="Oval" fill="#FFFFFF" transform="translate(39.889287, 10.976497) rotate(21.000000) translate(-39.889287, -10.976497) " cx="39.8892874" cy="10.9764967" rx="1.7078506" ry="2.85556233"></ellipse>
                    </g>
                </g>
                <g id="Group-7-Copy-3" transform="translate(179.451096, 101.104435) scale(-1, 1) translate(-179.451096, -101.104435) translate(135.451096, 31.104435)">
                    <polygon id="Path-10" stroke="#E74624" fill="#E74624" points="7.90420378 64.8955654 0.548904404 47.3009708 28.7222514 22.8955654 37.084993 25.7334032 49.2664578 24.5982681 70.5489044 47.3009708 63.3705799 56.9577487 47.3607679 50.7233679 25.8851605 50.7233679 25.8851605 41.0577275 15.2840408 50.7233679 47.3607679 50.7233679 54.2112845 60.9225924"></polygon>
                    <path d="M37.0379057,10.6607096 C37.3108232,10.5018582 37.5649156,10.5468444 37.9123528,10.5831935 C39.7317169,10.748269 43.1507952,11.0703949 48.576667,11.5898753 C48.7896769,11.7643301 48.8489382,11.8865489 48.888277,12.0534043 C49.0171167,12.5998764 49.076915,13.4279403 49.0765229,14.5362239 C49.0756512,16.9934621 48.4445787,19.2184021 47.33725,20.8078233 C46.3220881,22.2649516 44.9013093,23.1820793 43.2042566,23.1826784 C41.4609347,23.1832936 39.8949394,22.223957 38.7571401,20.7062468 C37.5745046,19.1287296 36.8502847,16.947471 36.8511374,14.5409654 L36.8511374,14.5409654 L36.8517018,13.1693909 C36.8548203,11.806214 36.8758516,11.0558351 37.0379057,10.6607096 Z" id="Oval" stroke="#332E2E" transform="translate(42.963640, 16.854253) scale(-1, 1) rotate(5.000000) translate(-42.963640, -16.854253) "></path>
                    <polygon id="Path-12" fill="#5C62FF" points="25.5489044 61.8955654 54.126972 63.0283087 72.5489044 81.5165093 54.1834167 125.329194 40.3332195 125.895565 54.1834167 85.683176 31.0997547 78.8867158"></polygon>
                    <path d="M47.1772028,124.635573 C48.2006007,124.190688 49.5130549,124.499068 50.8045759,125.266089 C52.2041755,126.097298 53.586487,127.486786 54.6264565,129.230587 C55.6568925,130.958403 56.1608898,132.7124 56.1252098,134.155395 C56.1082747,134.840295 55.9695932,135.451542 55.6971798,135.943075 C55.4556518,136.378881 55.1072851,136.716025 54.6488644,136.915307 C53.6254665,137.360193 52.3130123,137.051813 51.0214913,136.284791 C49.6218917,135.453583 48.2395802,134.064094 47.1996108,132.320293 C46.1691747,130.592478 45.6651774,128.838481 45.7008575,127.395486 C45.7177926,126.710586 45.856474,126.099339 46.1288874,125.607805 C46.3704154,125.172 46.7187821,124.834855 47.1772028,124.635573 Z" id="Oval" stroke="#332E2E" transform="translate(50.913034, 130.775440) rotate(-31.000000) translate(-50.913034, -130.775440) "></path>
                    <path d="M74.7295908,119.723494 C75.75138,119.278453 77.0618912,119.587663 78.3515367,120.355549 C79.7497369,121.188072 81.1307653,122.579556 82.1699508,124.325682 C83.1997622,126.056058 83.7036072,127.81254 83.6682942,129.257455 C83.6515304,129.943387 83.5131083,130.555517 83.2410345,131.04773 C82.9999436,131.483891 82.6521952,131.821341 82.1944421,132.020715 C81.1726529,132.465756 79.8621417,132.156546 78.5724962,131.38866 C77.174296,130.556137 75.7932676,129.164653 74.7540821,127.418527 C73.7242707,125.688151 73.2204257,123.931669 73.2557387,122.486754 C73.2725025,121.800822 73.4109246,121.188692 73.6829984,120.696479 C73.9240893,120.260318 74.2718377,119.922868 74.7295908,119.723494 Z" id="Oval-Copy-11" stroke="#332E2E" transform="translate(78.462016, 125.872104) rotate(-48.000000) translate(-78.462016, -125.872104) "></path>
                    <path d="M31.5922329,11.1677896 L43.7968959,12.2803327 L43.7945752,18.8291045 C48.5976537,18.9413793 51.0942161,17.029002 51.2842622,13.0919726 C51.5693315,7.18642857 47.8047662,0.111755675 37.7970001,2.283391 C27.7892339,4.45502632 26.8774248,17.08445 31.5901368,17.0827866 C31.5901368,17.0827866 31.5908355,15.1111209 31.5922329,11.1677896 Z" id="Path-14" stroke="#332E2E" stroke-linejoin="round" transform="translate(40.071729, 10.357915) scale(-1, 1) rotate(5.000000) translate(-40.071729, -10.357915) "></path>
                    <path d="M25.76708,60.8955654 C23.6216296,81.466994 22.5489044,91.7527082 22.5489044,91.7527082 C22.5489044,91.7527082 33.1501235,93.0860416 54.3525616,95.7527082 L66.709689,124.895565 C74.6024993,121.086042 78.5489044,119.18128 78.5489044,119.18128 C78.5489044,119.18128 62.0028458,86.9238392 62.0028458,86.9238392 C62.0028458,86.9238392 55.0171757,81.7001289 41.0458354,71.2527082" id="Path-11" stroke="#332E2E" fill="#5C62FF"></path>
                    <g id="Group-8" transform="translate(15.548904, 38.895565)">
                        <line x1="-6.46838904e-14" y1="22.8571429" x2="46.3625039" y2="22.8571429" id="Path-19" stroke="#332E2E" stroke-width="2"></line>
                        <polygon id="Path-20" fill="#332E2E" points="26.639448 0 64.9237701 0 46.6305211 24 12.5789426 24"></polygon>
                        <ellipse id="Oval" fill="#FFFFFF" transform="translate(39.889287, 10.976497) rotate(21.000000) translate(-39.889287, -10.976497) " cx="39.8892874" cy="10.9764967" rx="1.7078506" ry="2.85556233"></ellipse>
                    </g>
                </g>
                <line x1="300.5" y1="127.5" x2="171" y2="125" id="Path-21-Copy-2" stroke="#332E2E" transform="translate(236.000000, 126.500000) scale(-1, 1) translate(-236.000000, -126.500000) "></line>
                <line x1="300.5" y1="131.5" x2="174" y2="129" id="Path-21-Copy-3" stroke="#332E2E" transform="translate(237.500000, 130.500000) scale(-1, 1) translate(-237.500000, -130.500000) "></line>
                <path d="M68.9268717,102.060813 C77.4391869,109.008054 79.5672658,118.513287 75.3111081,130.576511 C68.9268717,148.671348 60.7039717,132.015702 46,138.121626 C31.2960283,144.22755 27.8047965,174.245985 20.6904185,180.122537 C15.9474997,184.040238 10.8637559,184.040238 5.43918694,180.122537 C5.43918694,146.242277 5.43918694,123.07331 5.43918694,110.615637 C5.43918694,108.192497 7.02818786,102.060813 14.5393337,102.060813 C19.5467643,102.060813 37.6759436,102.060813 68.9268717,102.060813 Z" id="Path-17-Copy" fill-opacity="0.5" fill="#DDD1BF" transform="translate(41.439187, 142.560813) rotate(-90.000000) translate(-41.439187, -142.560813) "></path>
            </g>
        </g>
    </g>
</svg>