<svg xmlns="http://www.w3.org/2000/svg" width="32" height="32" viewBox="0 0 32 32">
    <g fill="none" fill-rule="evenodd">
        <g>
            <g>
                <g>
                    <g>
                        <path fill="#FFF" d="M16.008.166C7.268.166.18 7.252.18 15.992S7.267 31.82 16.008 31.82c8.74 0 15.826-7.086 15.826-15.827 0-8.74-7.086-15.826-15.826-15.826" transform="translate(-1198 -2167) translate(0 1926) translate(1081 241) translate(117)"/>
                        <path fill="#493880" d="M23.215 18.62c-.067 1.437-.156 2.873-.236 4.308-.01.162-.029.323-.046.508h-4.222l.133-2.586c.11-2.13.246-4.259.324-6.39.075-2.04-.656-2.728-2.702-2.638-2.055.09-3.13 1.132-3.246 3.173-.144 2.525-.27 5.052-.406 7.578-.015.278-.041.556-.069.915h-4.18v-2.085c.07-1.035.15-2.07.208-3.105.166-3.005.322-6.01.483-9.014.007-.112.025-.223.04-.359h3.992v1.822c.416-.38.817-.813 1.282-1.16 1.785-1.33 5.08-1.461 6.98-.297 1.223.75 1.903 1.878 1.901 3.285-.002 2.016-.141 4.03-.236 6.045" transform="translate(-1198 -2167) translate(0 1926) translate(1081 241) translate(117)"/>
                    </g>
                </g>
            </g>
        </g>
    </g>
</svg>
