<svg xmlns="http://www.w3.org/2000/svg" xmlns:xlink="http://www.w3.org/1999/xlink" viewBox="0 0 83 83.5"><defs><style>.cls-1{fill:url(#Degradado_sin_nombre_13);}.cls-2{fill:url(#Degradado_sin_nombre_7);}.cls-3{fill:url(#Degradado_sin_nombre_13-2);}.cls-4{fill:url(#Degradado_sin_nombre_7-2);}</style><linearGradient id="Degradado_sin_nombre_13" y1="25.25" x2="82.63" y2="25.25" gradientUnits="userSpaceOnUse"><stop offset="0" stop-color="#e84b1e"/><stop offset="0.2" stop-color="#ed6a22"/><stop offset="0.97" stop-color="#f8ac2e"/></linearGradient><linearGradient id="Degradado_sin_nombre_7" x1="15" y1="30.93" x2="83" y2="30.93" gradientUnits="userSpaceOnUse"><stop offset="0.1" stop-color="#e84b1e"/><stop offset="0.97" stop-color="#f8ac2e"/></linearGradient><linearGradient id="Degradado_sin_nombre_13-2" x1="110" y1="248.25" x2="192.63" y2="248.25" gradientTransform="translate(193 306.5) rotate(180)" xlink:href="#Degradado_sin_nombre_13"/><linearGradient id="Degradado_sin_nombre_7-2" x1="125" y1="253.93" x2="193" y2="253.93" gradientTransform="translate(193 306.5) rotate(180)" xlink:href="#Degradado_sin_nombre_7"/></defs><g id="Capa_2" data-name="Capa 2"><g id="Capa_1-2" data-name="Capa 1"><path class="cls-1" d="M9,50.5a9,9,0,0,1-9-9,41.5,41.5,0,0,1,82.52-6.32A9,9,0,1,1,64.73,37.9,23.5,23.5,0,0,0,18,41.5,9,9,0,0,1,9,50.5Z"/><path class="cls-2" d="M24,52.5a9,9,0,0,1-9-9,34.15,34.15,0,0,1,67.9-5.2A9,9,0,0,1,65.1,41,16.14,16.14,0,0,0,33,43.5,9,9,0,0,1,24,52.5Z"/><path class="cls-3" d="M41.5,83.5a41.75,41.75,0,0,1-41-35.18A9,9,0,1,1,18.27,45.6,23.5,23.5,0,0,0,65,42a9,9,0,0,1,18,0A41.55,41.55,0,0,1,41.5,83.5Z"/><path class="cls-4" d="M33.86,74.15A34.37,34.37,0,0,1,.1,45.2a9,9,0,0,1,17.8-2.73A16.14,16.14,0,0,0,50,40a9,9,0,0,1,18,0A34.19,34.19,0,0,1,33.86,74.15Z"/></g></g></svg>