<svg xmlns="http://www.w3.org/2000/svg" xmlns:xlink="http://www.w3.org/1999/xlink" viewBox="0 0 231.1 81.88"><defs><style>.cls-1{fill:#2d2e82;}.cls-2{fill:url(#Degradado_sin_nombre_13);}.cls-3{fill:url(#Degradado_sin_nombre_7);}.cls-4{fill:url(#Degradado_sin_nombre_92);}.cls-5{fill:url(#Degradado_sin_nombre_83);}</style><linearGradient id="Degradado_sin_nombre_13" y1="26.8" x2="84.21" y2="26.8" gradientUnits="userSpaceOnUse"><stop offset="0" stop-color="#e74b1e"/><stop offset="0.2" stop-color="#ec6a22"/><stop offset="0.97" stop-color="#f7ab2d"/></linearGradient><linearGradient id="Degradado_sin_nombre_7" x1="14.92" y1="30.45" x2="84.31" y2="30.45" gradientUnits="userSpaceOnUse"><stop offset="0.1" stop-color="#e74b1e"/><stop offset="0.97" stop-color="#f7ab2d"/></linearGradient><linearGradient id="Degradado_sin_nombre_92" x1="124.58" y1="631.8" x2="208.86" y2="631.8" gradientTransform="translate(208.89 688) rotate(180)" gradientUnits="userSpaceOnUse"><stop offset="0" stop-color="#2d2e82"/><stop offset="0.14" stop-color="#2a3c8d"/><stop offset="1" stop-color="#1d70b7"/></linearGradient><linearGradient id="Degradado_sin_nombre_83" x1="139.5" y1="634.54" x2="208.89" y2="634.54" gradientTransform="translate(208.89 688) rotate(180)" gradientUnits="userSpaceOnUse"><stop offset="0.11" stop-color="#2d2e82"/><stop offset="1" stop-color="#1d70b7"/></linearGradient></defs><g id="Capa_2" data-name="Capa 2"><g id="Capa_1-2" data-name="Capa 1"><path class="cls-1" d="M128.86,37.69a6.68,6.68,0,0,1-2.75,2.61,9.73,9.73,0,0,1-4.61,1h-3.39v8.06h-5.48V26.89h8.87a10,10,0,0,1,4.54.93,6.32,6.32,0,0,1,2.79,2.56,7.39,7.39,0,0,1,.93,3.74A7.23,7.23,0,0,1,128.86,37.69Zm-5.44-1.49a3.19,3.19,0,0,0,0-4.16,3.27,3.27,0,0,0-2.34-.74h-3v5.64h3A3.27,3.27,0,0,0,123.42,36.2Z"/><path class="cls-1" d="M140.48,32.15a6.21,6.21,0,0,1,3.19-.85v5.8h-1.5a4.59,4.59,0,0,0-3.07.88,3.89,3.89,0,0,0-1,3.08v8.29H132.6V31.5h5.48v3A7.18,7.18,0,0,1,140.48,32.15Z"/><path class="cls-1" d="M149.71,48.49a8.26,8.26,0,0,1-3.3-3.2,9.58,9.58,0,0,1-1.2-4.87,9.46,9.46,0,0,1,1.22-4.84,8.25,8.25,0,0,1,3.33-3.22,10.57,10.57,0,0,1,9.47,0,8.29,8.29,0,0,1,3.32,3.22,9.36,9.36,0,0,1,1.22,4.84,9.38,9.38,0,0,1-1.23,4.85,8.33,8.33,0,0,1-3.36,3.22,10.12,10.12,0,0,1-4.75,1.12A9.91,9.91,0,0,1,149.71,48.49Zm7.39-4.77a4.61,4.61,0,0,0,1.1-3.3,4.69,4.69,0,0,0-1.07-3.29,3.65,3.65,0,0,0-5.3,0,4.71,4.71,0,0,0-1.05,3.31,4.78,4.78,0,0,0,1,3.3,3.35,3.35,0,0,0,2.61,1.15A3.57,3.57,0,0,0,157.1,43.72Z"/><path class="cls-1" d="M176.78,32A5.62,5.62,0,0,1,179,34V31.5h5.47V49.32a10,10,0,0,1-1,4.46,7.44,7.44,0,0,1-3,3.19,9.61,9.61,0,0,1-5,1.18,10.34,10.34,0,0,1-6.43-1.87,7.06,7.06,0,0,1-2.81-5.07h5.4a2.58,2.58,0,0,0,1.22,1.61,4.39,4.39,0,0,0,2.37.6,3.72,3.72,0,0,0,2.7-1,4.19,4.19,0,0,0,1-3.12V46.79a6,6,0,0,1-2.21,2,6.59,6.59,0,0,1-3.29.79,7.27,7.27,0,0,1-4-1.14,7.87,7.87,0,0,1-2.84-3.23,10.82,10.82,0,0,1-1-4.85,10.73,10.73,0,0,1,1-4.83,7.78,7.78,0,0,1,2.84-3.2,7.33,7.33,0,0,1,4-1.12A6.91,6.91,0,0,1,176.78,32Zm1.05,5.18A3.67,3.67,0,0,0,175.07,36a3.72,3.72,0,0,0-2.77,1.17,4.4,4.4,0,0,0-1.14,3.21,4.52,4.52,0,0,0,1.14,3.25,3.81,3.81,0,0,0,5.53,0A4.48,4.48,0,0,0,179,40.42,4.47,4.47,0,0,0,177.83,37.19Z"/><path class="cls-1" d="M193.79,26.89V40.33a4.44,4.44,0,0,0,1,3.1,3.72,3.72,0,0,0,2.91,1.09,3.82,3.82,0,0,0,2.94-1.09,4.31,4.31,0,0,0,1-3.1V26.89h5.47V40.3a9.53,9.53,0,0,1-1.28,5.08,8.14,8.14,0,0,1-3.44,3.14,10.89,10.89,0,0,1-4.82,1.06,10.59,10.59,0,0,1-4.75-1,7.76,7.76,0,0,1-3.31-3.14,10,10,0,0,1-1.22-5.1V26.89Z"/><path class="cls-1" d="M224.73,49.35l-4.58-6.88-4,6.88h-6.21l7.2-11.42-7.36-11h6.37l4.51,6.78,4-6.78h6.21l-7.14,11.33,7.43,11.13Z"/><path class="cls-2" d="M0,44.05C0,19.76,19,0,42.29,0,63,0,81,16.05,84.1,37.34a9.5,9.5,0,0,1-7.68,10.89,9.23,9.23,0,0,1-10.45-8C64.2,28.19,54,19.11,42.29,19.11c-13.2,0-23.95,11.19-23.95,24.94A9.36,9.36,0,0,1,9.17,53.6,9.37,9.37,0,0,1,0,44.05"/><path class="cls-3" d="M24.1,52.39a9.16,9.16,0,0,1-9.18-9.15A34.85,34.85,0,0,1,84.2,38,9.18,9.18,0,0,1,66,40.72a16.48,16.48,0,0,0-32.75,2.52A9.16,9.16,0,0,1,24.1,52.39Z"/><path class="cls-4" d="M84.31,39.68A42.34,42.34,0,0,1,.14,46.1a9.18,9.18,0,0,1,18.15-2.77A24,24,0,0,0,66,39.68a9.18,9.18,0,0,1,18.36,0"/><path class="cls-5" d="M60.2,31.52a9.17,9.17,0,0,1,9.18,9.15A34.85,34.85,0,0,1,.11,46a9.18,9.18,0,0,1,18.15-2.77A16.48,16.48,0,0,0,51,40.67,9.17,9.17,0,0,1,60.2,31.52Z"/></g></g></svg>